:SAMPLES-PER-SECOND 30
:FULLY-SPECIFIED
:DEGREES
529
root  12.8083 39.1967 -2.45944 47.9696 85.7647 48.4853
RightUpLeg  4.18691 -7.37975 -1.21975
RightLeg  13.6772 11.1244 0.788061
RightFoot  -14.807 -0.306212 -6.80765
RightToes  -6.40286e-010 0 -3.6325e-017
Spine  7.306 4.19202 10.8555
Spine1  6.30225 7.25524 -9.24001
HEad  -19.1344 -7.66505 0.639887
LeftShoulder1  -0.531557 4.8826 -32.4004
LeftArm  4.46988 12.532 -42.271
LeftForeArm  26.8865 -34.2261 -6.07107
LeftHand  -0.0310911 5.12699 2.98527
RightShoulder  -0.632908 -5.245 29.6089
RightArm  17.7585 0.551927 52.3183
RightForeArm  5.56888 28.174 5.77852
RightHand  -0.330399 8.32291 -3.17023
LeftUpLeg  -20.0524 0.888706 -0.0208642
LeftLeg  20.9106 2.58456 1.47958
LeftFoot  -1.03556 0.244726 -2.64786
LeftToes  1.32783e-010 1.73515e-011 1.59258e-011
530
root  13.6396 39.1764 -2.49686 38.7786 84.8681 39.3207
RightUpLeg  6.29188 -7.25611 -1.66375
RightLeg  12.1093 12.2805 0.480859
RightFoot  -15.1702 -0.324777 -6.64982
RightToes  -6.40286e-010 0 -3.6325e-017
Spine  6.62483 4.17337 10.5306
Spine1  6.46365 7.14966 -9.53095
HEad  -18.7423 -6.61012 0.083469
LeftShoulder1  -0.498954 4.81031 -32.0504
LeftArm  4.77887 13.4058 -42.4798
LeftForeArm  26.8406 -34.1089 -6.04401
LeftHand  -0.0221554 5.58014 3.07533
RightShoulder  -0.614196 -5.21559 29.1168
RightArm  15.3298 2.27479 52.679
RightForeArm  7.52443 31.9049 6.60281
RightHand  -0.340875 8.42516 -3.2441
LeftUpLeg  -19.4583 0.950987 -0.361068
LeftLeg  12.028 -1.45278 -0.0820285
LeftFoot  -0.677013 0.318538 -3.36763
LeftToes  1.32783e-010 1.73515e-011 1.59258e-011
531
root  14.4768 39.121 -2.53913 31.5888 83.7311 32.2894
RightUpLeg  8.36454 -7.20275 -2.29881
RightLeg  10.9183 13.6243 0.225836
RightFoot  -15.8074 -0.351017 -6.25288
RightToes  -6.40286e-010 0 -3.6325e-017
Spine  6.06165 4.26442 9.62227
Spine1  6.8352 7.09655 -9.25014
HEad  -18.574 -5.44615 -0.291474
LeftShoulder1  -0.496095 4.80056 -32.0901
LeftArm  5.00816 14.083 -42.3753
LeftForeArm  26.7256 -33.5417 -5.9061
LeftHand  -0.0235581 5.59903 2.34783
RightShoulder  -0.556191 -5.07904 28.523
RightArm  14.9007 4.6435 52.7227
RightForeArm  7.5796 34.8256 7.37947
RightHand  -0.439574 7.91707 -4.19305
LeftUpLeg  -18.648 1.08204 -0.726464
LeftLeg  4.19334 -0.5977 -0.046845
LeftFoot  0.143032 0.428108 -4.25926
LeftToes  1.32783e-010 1.73515e-011 1.59258e-011
532
root  15.4045 38.9635 -2.5883 28.5064 82.9763 29.7222
RightUpLeg  10.5909 -7.22067 -3.03116
RightLeg  10.588 14.5115 0.0874576
RightFoot  -16.9456 -0.415852 -6.14868
RightToes  -6.40286e-010 0 -3.6325e-017
Spine  5.88839 4.16304 9.33442
Spine1  7.15367 7.16562 -9.91109
HEad  -18.7434 -4.84113 0.0697146
LeftShoulder1  -0.402821 4.57779 -31.3846
LeftArm  5.82689 15.0843 -42.4449
LeftForeArm  26.2646 -32.9383 -5.78201
LeftHand  -0.0186741 5.86716 2.55993
RightShoulder  -0.597289 -5.21025 28.2481
RightArm  13.7706 6.77214 52.8126
RightForeArm  9.21911 37.2062 7.95694
RightHand  -0.489938 7.99728 -4.60913
LeftUpLeg  -18.0395 1.46591 -1.11927
LeftLeg  0.126912 4.20095 -0.629868
LeftFoot  1.00305 0.543609 -5.08706
LeftToes  1.32783e-010 1.73515e-011 1.59258e-011
533
root  16.425 38.682 -2.67949 25.6164 82.7875 27.2328
RightUpLeg  12.4602 -7.07664 -3.47378
RightLeg  11.2608 14.7567 0.214037
RightFoot  -18.611 -0.497679 -5.857
RightToes  -6.40286e-010 0 -3.6325e-017
Spine  5.29952 4.05982 8.97185
Spine1  7.65374 6.98783 -9.62162
HEad  -19.2352 -4.3798 0.0857251
LeftShoulder1  -0.375749 4.50142 -31.5284
LeftArm  6.73867 15.6615 -42.1124
LeftForeArm  25.6002 -31.5399 -5.47708
LeftHand  -0.0186213 5.79226 2.7853
RightShoulder  -0.554872 -5.11733 27.6047
RightArm  13.1075 8.71862 52.6722
RightForeArm  10.579 38.3662 8.22129
RightHand  -0.397677 7.97113 -3.82256
LeftUpLeg  -18.184 1.69804 -1.44322
LeftLeg  0.588854 7.47307 -1.05019
LeftFoot  0.980963 0.540462 -5.02585
LeftToes  1.32783e-010 1.73515e-011 1.59258e-011
534
root  17.534 38.3644 -2.79118 25.0611 82.9498 27.3421
RightUpLeg  14.7912 -6.77135 -4.06399
RightLeg  11.9953 14.5896 0.377237
RightFoot  -20.438 -0.544926 -5.10996
RightToes  -6.40286e-010 0 -3.6325e-017
Spine  4.94031 3.93021 8.48836
Spine1  8.14179 6.83328 -9.40057
HEad  -19.3041 -4.24681 0.164868
LeftShoulder1  -0.357122 4.45316 -31.4817
LeftArm  8.03388 16.0558 -42.0074
LeftForeArm  24.9248 -29.5952 -5.05462
LeftHand  -0.021908 6.60574 1.48046
RightShoulder  -0.522519 -5.03966 27.2146
RightArm  12.5369 10.0858 52.0276
RightForeArm  11.7485 38.7129 8.25382
RightHand  -0.379012 8.17269 -3.61545
LeftUpLeg  -18.5753 1.42418 -2.437
LeftLeg  4.47472 8.24627 -0.325345
LeftFoot  2.08883 0.266725 -2.52266
LeftToes  1.32783e-010 1.73515e-011 1.59258e-011
535
root  18.6893 38.1351 -2.88962 24.8952 82.2745 27.7259
RightUpLeg  16.8375 -5.28309 -4.74351
RightLeg  12.8114 13.9143 0.441935
RightFoot  -21.5608 -0.485724 -3.8031
RightToes  -6.40286e-010 0 -3.6325e-017
Spine  4.68375 4.17841 7.73537
Spine1  8.42491 7.21097 -9.75951
HEad  -19.6767 -4.11743 0.596621
LeftShoulder1  -0.348585 4.43203 -31.4193
LeftArm  9.30672 16.4597 -41.7462
LeftForeArm  23.9282 -27.1274 -4.50999
LeftHand  -0.0426963 7.55429 -0.178466
RightShoulder  -0.535479 -5.07809 27.2201
RightArm  13.2067 11.4937 51.1993
RightForeArm  11.6615 37.4153 7.8709
RightHand  -0.382613 7.8254 -3.71894
LeftUpLeg  -19.2352 2.26838 -3.78743
LeftLeg  9.25559 6.8525 0.483253
LeftFoot  5.84453 -0.294538 1.7419
LeftToes  1.32783e-010 1.73515e-011 1.59258e-011
536
root  19.9225 37.8971 -2.98774 25.7749 81.5273 29.0296
RightUpLeg  18.2396 -2.05353 -4.85905
RightLeg  14.7612 11.4411 0.690291
RightFoot  -22.4353 -0.331566 -1.87096
RightToes  -6.40286e-010 0 -3.6325e-017
Spine  4.22891 4.42222 6.76338
Spine1  8.47658 7.45178 -9.96698
HEad  -19.621 -4.12002 1.03418
LeftShoulder1  -0.398162 4.55207 -31.8336
LeftArm  10.4825 16.459 -40.9157
LeftForeArm  22.546 -23.7918 -4.14893
LeftHand  -0.0353969 6.88305 0.168886
RightShoulder  -0.493404 -4.94886 27.299
RightArm  13.7509 11.6906 50.577
RightForeArm  12.4779 35.3467 7.2294
RightHand  -0.239539 7.67088 -2.49467
LeftUpLeg  -19.8259 4.23331 -5.16756
LeftLeg  14.2643 4.6348 1.14354
LeftFoot  7.36317 -0.634115 3.63806
LeftToes  1.32783e-010 1.73515e-011 1.59258e-011
537
root  21.1491 37.7506 -3.07523 31.1063 81.2994 34.9661
RightUpLeg  19.275 2.03888 -5.02198
RightLeg  17.861 7.6809 1.72191
RightFoot  -22.2886 -0.0214947 1.36897
RightToes  -6.40286e-010 0 -3.6325e-017
Spine  4.32481 4.32955 5.57954
Spine1  8.25868 7.45108 -10.639
HEad  -19.9134 -3.77983 1.29405
LeftShoulder1  -0.43451 4.63061 -32.4284
LeftArm  8.95069 15.3931 -39.5884
LeftForeArm  23.3613 -18.7299 -5.40246
LeftHand  -0.0238948 7.08976 0.989374
RightShoulder  -0.504659 -4.98336 27.2718
RightArm  15.1367 11.0378 50.6402
RightForeArm  11.1862 32.0588 6.44057
RightHand  -0.201771 7.25988 -2.21008
LeftUpLeg  -19.9487 5.16081 -6.8873
LeftLeg  19.4213 3.38524 1.71251
LeftFoot  4.19169 -0.76402 5.39747
LeftToes  1.32783e-010 1.73515e-011 1.59258e-011
538
root  22.2768 37.7966 -3.19323 33.6971 80.8713 37.9138
RightUpLeg  18.8611 3.15116 -6.2422
RightLeg  22.3453 7.07749 3.10835
RightFoot  -19.9107 0.30775 6.06649
RightToes  -6.40286e-010 0 -3.6325e-017
Spine  4.48842 4.28665 5.32707
Spine1  8.12957 7.68617 -12.5051
HEad  -19.8333 -3.70059 0.903544
LeftShoulder1  -0.391734 4.51539 -32.583
LeftArm  0.644813 14.4154 -38.5658
LeftForeArm  30.9446 -12.6925 -7.71763
LeftHand  -0.0464924 7.81897 -0.223332
RightShoulder  -0.540634 -5.07304 27.658
RightArm  17.3334 9.92922 51.0664
RightForeArm  8.75956 26.9866 5.30155
RightHand  -0.191079 6.72898 -2.17544
LeftUpLeg  -18.5023 6.17793 -7.8905
LeftLeg  20.9837 2.99186 1.60493
LeftFoot  1.74311 -0.688578 5.89152
LeftToes  1.32783e-010 1.73515e-011 1.59258e-011
539
root  23.2822 37.9353 -3.31771 33.935 79.8129 38.0121
RightUpLeg  15.3379 1.73445 -8.93645
RightLeg  30.3582 8.77464 5.28892
RightFoot  -14.9414 0.249905 11.2781
RightToes  -6.40286e-010 0 -3.6325e-017
Spine  4.73221 4.41531 3.97292
Spine1  7.49627 7.55836 -12.9376
HEad  -19.4017 -3.01862 -0.11925
LeftShoulder1  -0.407447 4.54535 -32.9841
LeftArm  -5.69531 13.9888 -38.2813
LeftForeArm  36.2903 -7.68754 -7.8294
LeftHand  -0.0636196 9.07981 -0.39491
RightShoulder  -0.525294 -5.03053 27.5958
RightArm  20.1996 8.3927 51.6981
RightForeArm  5.83139 21.7846 4.74928
RightHand  -0.186568 6.54428 -2.16056
LeftUpLeg  -16.8916 6.6867 -8.73162
LeftLeg  20.8597 3.4373 1.77829
LeftFoot  0.0663444 -0.569434 5.69428
LeftToes  1.32783e-010 1.73515e-011 1.59258e-011
540
root  24.2762 38.0989 -3.40556 33.4729 79.2368 37.5854
RightUpLeg  10.4874 1.20174 -10.4662
RightLeg  39.9436 8.32191 7.1275
RightFoot  -6.64448 -0.573642 13.2239
RightToes  -6.40286e-010 0 -3.6325e-017
Spine  4.3802 4.18067 2.26214
Spine1  7.87187 6.93912 -12.1095
HEad  -19.486 -1.62397 -1.13116
LeftShoulder1  -0.370055 4.45233 -32.8424
LeftArm  -7.19469 13.9158 -38.9306
LeftForeArm  36.9288 -5.13464 -7.0504
LeftHand  -0.0929663 9.62194 -1.06253
RightShoulder  -0.521133 -5.00837 27.8109
RightArm  21.5872 7.49195 52.082
RightForeArm  6.71486 16.9584 5.79116
RightHand  -0.174287 5.57347 -2.15902
LeftUpLeg  -14.9127 6.64972 -9.07292
LeftLeg  20.4355 3.99256 1.81649
LeftFoot  -1.46032 -0.473964 5.57737
LeftToes  1.32783e-010 1.73515e-011 1.59258e-011
